<svg width="50" height="48" viewBox="0 0 50 48" fill="none" xmlns="http://www.w3.org/2000/svg">
<path fill-rule="evenodd" clip-rule="evenodd" d="M0 39.6522C0 32.4021 4.61336 26.2311 11.0599 23.9249C12.812 23.2979 14.6995 22.9565 16.6667 22.9565C18.6338 22.9565 20.5214 23.2979 22.2733 23.9249C23.2253 24.2652 24.1369 24.6901 25 25.1901C25.8631 24.6901 26.7747 24.2652 27.7267 23.9249C29.4786 23.2979 31.3661 22.9565 33.3333 22.9565C35.3006 22.9565 37.1881 23.2979 38.94 23.9249C45.3867 26.2311 50 32.4021 50 39.6522V48H35.4167V43.8261H45.8333V39.6522C45.8333 32.7366 40.2369 27.1304 33.3333 27.1304C31.6747 27.1304 30.0917 27.4541 28.6433 28.0417C31.5467 31.0464 33.3333 35.1402 33.3333 39.6522V48H0V39.6522ZM16.6667 20.8696C14.7529 20.8696 12.9597 20.3526 11.4186 19.4504C8.32694 17.6406 6.25 14.2807 6.25 10.4348C6.25 4.67181 10.9137 0 16.6667 0C20.0742 0 23.0994 1.63898 25 4.17288C26.9006 1.63898 29.9258 0 33.3333 0C39.0864 0 43.75 4.67181 43.75 10.4348C43.75 14.2807 41.6731 17.6406 38.5814 19.4504C37.0403 20.3526 35.2472 20.8696 33.3333 20.8696C31.4194 20.8696 29.6264 20.3526 28.0853 19.4504C26.8822 18.7462 25.8331 17.8073 25 16.6967C24.1669 17.8076 23.1178 18.7462 21.9147 19.4504C20.3736 20.3526 18.5804 20.8696 16.6667 20.8696ZM29.1667 39.6522V43.8261H4.16667V39.6522C4.16667 32.7366 9.76311 27.1304 16.6667 27.1304C23.5703 27.1304 29.1667 32.7366 29.1667 39.6522ZM22.9167 10.4348C22.9167 13.8926 20.1183 16.6957 16.6667 16.6957C13.2149 16.6957 10.4167 13.8926 10.4167 10.4348C10.4167 6.977 13.2149 4.17391 16.6667 4.17391C20.1183 4.17391 22.9167 6.977 22.9167 10.4348ZM33.3333 4.17391C29.8817 4.17391 27.0833 6.977 27.0833 10.4348C27.0833 13.8926 29.8817 16.6957 33.3333 16.6957C36.785 16.6957 39.5833 13.8926 39.5833 10.4348C39.5833 6.977 36.785 4.17391 33.3333 4.17391Z" fill="#237D31"/>
</svg>
