<svg width="56" height="60" viewBox="0 0 56 60" fill="none" xmlns="http://www.w3.org/2000/svg">
<path d="M28 3.34766H13C9.49969 3.34766 7.7495 3.34766 6.41256 3.99742C5.23653 4.56894 4.28041 5.48092 3.68122 6.60265C3 7.87786 3 9.54724 3 12.8859V47.4622C3 50.8009 3 52.4704 3.68122 53.7455C4.28041 54.8672 5.23653 55.7793 6.41256 56.3507C7.7495 57.0005 9.49969 57.0005 13 57.0005H24.875M28 3.34766L46.75 21.2319M28 3.34766V16.4628C28 18.1321 28 18.9668 28.3406 19.6044C28.6403 20.1653 29.1181 20.6213 29.7062 20.9071C30.3747 21.2319 31.2497 21.2319 33 21.2319H46.75M46.75 21.2319V27.1934M47.5894 51.8397L53 57.0005M49.875 46.568C49.875 50.6835 46.3772 54.0198 42.0625 54.0198C37.7478 54.0198 34.25 50.6835 34.25 46.568C34.25 42.4525 37.7478 39.1162 42.0625 39.1162C46.3772 39.1162 49.875 42.4525 49.875 46.568Z" stroke="#237D31" stroke-width="5" stroke-linecap="round" stroke-linejoin="round"/>
</svg>
